<svg xmlns="http://www.w3.org/2000/svg" xmlns:xlink="http://www.w3.org/1999/xlink" x="0" y="0" width="661.6000366210938" height="301.6000061035156" style="
        width:661.6000366210938px;
        height:301.6000061035156px;
        background: transparent;
        fill: none;
">
        
        
        <svg xmlns="http://www.w3.org/2000/svg" class="role-diagram-draw-area"><g class="shapes-region" style="stroke: black; fill: none;"><g class="arrow-line"><path class="connection real" stroke-dasharray="" d="  M373.71,41.8 L408.24,97.48" style="stroke: rgb(0, 0, 0); stroke-width: 1; fill: none; fill-opacity: 1;"/></g><g class="arrow-line"><path class="connection real" stroke-dasharray="" d="  M349.97,39.64 L317.59,96.4" style="stroke: rgb(0, 0, 0); stroke-width: 1; fill: none; fill-opacity: 1;"/></g><g class="arrow-line"><path class="connection real" stroke-dasharray="" d="  M299.25,133.53 L271.19,188.13" style="stroke: rgb(0, 0, 0); stroke-width: 1; fill: none; fill-opacity: 1;"/></g><g class="arrow-line"><path class="connection real" stroke-dasharray="" d="  M312.2,134.18 L332.7,185.98" style="stroke: rgb(0, 0, 0); stroke-width: 1; fill: none; fill-opacity: 1;"/></g><g class="arrow-line"><path class="connection real" stroke-dasharray="" d="  M403.25,135.53 L375.19,190.13" style="stroke: rgb(0, 0, 0); stroke-width: 1; fill: none; fill-opacity: 1;"/></g><g class="arrow-line"><path class="connection real" stroke-dasharray="" d="  M417.2,137.18 L437.7,188.98" style="stroke: rgb(0, 0, 0); stroke-width: 1; fill: none; fill-opacity: 1;"/></g><g class="arrow-line"><path class="connection real" stroke-dasharray="" d="  M444.2,218.18 L468,271.6" style="stroke: rgb(0, 0, 0); stroke-width: 1; fill: none; fill-opacity: 1;"/></g><g class="arrow-line"><path class="connection real" stroke-dasharray="" d="  M433.25,218.53 L405.19,273.13" style="stroke: rgb(0, 0, 0); stroke-width: 1; fill: none; fill-opacity: 1;"/></g><g/></g><g/><g/><g/></svg>
        <svg xmlns="http://www.w3.org/2000/svg" xmlns:xlink="http://www.w3.org/1999/xlink" width="660" height="300" style="width:660px;height:300px;font-family:LatinModern-Math, LatinModern, Asana-Math, Asana;background:transparent;"><g><g><g><g><g transform="matrix(1,0,0,1,349.91253662109375,27.942493896484375)"><path transform="matrix(0.024480000000000002,0,0,-0.024480000000000002,0,0)" d="M943 250C943 256 939 261 934 263C877 282 833 322 797 367C769 403 748 447 739 494C737 503 729 510 719 510C708 510 699 501 699 490C699 489 700 487 700 486C710 433 733 384 766 342C788 314 814 290 844 270L78 270C67 270 58 261 58 250C58 239 67 230 78 230L844 230C814 210 788 186 766 158C733 116 710 67 700 14C700 13 699 11 699 10C699 -1 708 -10 719 -10C729 -10 737 -3 739 6C748 53 769 97 797 133C833 178 877 218 934 237C939 239 943 244 943 250Z" stroke="rgb(0,0,0)" stroke-opacity="1" stroke-width="8" fill="rgb(0,0,0)" fill-opacity="1"></path></g></g></g></g></g><g><g><g><g transform="matrix(1,0,0,1,257.51251220703125,210.31750915527343)"><path transform="matrix(0.024480000000000002,0,0,-0.024480000000000002,0,0)" d="M498 143C498 153 489 153 486 153C476 153 475 149 472 135C455 70 437 11 396 11C369 11 366 37 366 57C366 79 368 87 379 131L401 221L437 361C444 389 444 391 444 395C444 412 432 422 415 422C391 422 376 400 373 378C355 415 326 442 281 442C164 442 40 295 40 149C40 55 95 -11 173 -11C193 -11 243 -7 303 64C311 22 346 -11 394 -11C429 -11 452 12 468 44C485 80 498 143 498 143ZM361 332C361 326 359 320 358 315L308 119C303 101 303 99 288 82C244 27 203 11 175 11C125 11 111 66 111 105C111 155 143 278 166 324C197 383 242 420 282 420C347 420 361 338 361 332Z" stroke="rgb(0,0,0)" stroke-opacity="1" stroke-width="8" fill="rgb(0,0,0)" fill-opacity="1"></path></g></g></g></g><g><g><g><g transform="matrix(1,0,0,1,330.73748779296875,211.4050030517578)"><path transform="matrix(0.024480000000000002,0,0,-0.024480000000000002,0,0)" d="M415 282C415 373 362 442 282 442C236 442 195 413 165 382L239 683C239 683 239 694 226 694C203 694 130 686 104 684C96 683 85 682 85 664C85 652 94 652 109 652C157 652 159 645 159 635C159 628 150 594 145 573L63 247C51 197 47 181 47 146C47 51 100 -11 174 -11C292 -11 415 138 415 282ZM343 326C343 267 310 152 292 114C259 47 213 11 174 11C140 11 107 38 107 112C107 131 107 150 123 213L145 305C151 327 151 329 160 340C209 405 254 420 280 420C316 420 343 390 343 326Z" stroke="rgb(0,0,0)" stroke-opacity="1" stroke-width="8" fill="rgb(0,0,0)" fill-opacity="1"></path></g></g></g></g><g><g><g><g transform="matrix(1,0,0,1,401.32501220703125,120.86749694824219)"><path transform="matrix(0.024480000000000002,0,0,-0.024480000000000002,0,0)" d="M597 8L354 588C346 606 321 606 314 588L71 8C60 -17 97 -32 107 -8L334 532L560 -8C570 -32 607 -17 597 8Z" stroke="rgb(0,0,0)" stroke-opacity="1" stroke-width="8" fill="rgb(0,0,0)" fill-opacity="1"></path></g></g></g></g><g><g><g><g transform="matrix(1,0,0,1,301.51251220703125,119.66748474121094)"><path transform="matrix(0.024480000000000002,0,0,-0.024480000000000002,0,0)" d="M597 573C607 598 570 613 560 589L334 49L107 589C97 613 60 598 71 573L314 -7C321 -25 346 -25 354 -7Z" stroke="rgb(0,0,0)" stroke-opacity="1" stroke-width="8" fill="rgb(0,0,0)" fill-opacity="1"></path></g></g></g></g><g><g><g><g transform="matrix(1,0,0,1,369.73748779296875,211.4050030517578)"><path transform="matrix(0.024480000000000002,0,0,-0.024480000000000002,0,0)" d="M430 107C430 113 424 120 418 120C413 120 411 118 405 110C326 11 217 11 205 11C142 11 115 60 115 120C115 161 135 258 169 320C200 377 255 420 310 420C344 420 382 407 396 380C380 380 366 380 352 366C336 351 334 334 334 327C334 303 352 292 371 292C400 292 427 316 427 356C427 405 380 442 309 442C174 442 41 299 41 158C41 68 99 -11 203 -11C346 -11 430 95 430 107Z" stroke="rgb(0,0,0)" stroke-opacity="1" stroke-width="8" fill="rgb(0,0,0)" fill-opacity="1"></path></g></g></g></g><g><g><g><g transform="matrix(1,0,0,1,429.51251220703125,209.66748474121093)"><path transform="matrix(0.024480000000000002,0,0,-0.024480000000000002,0,0)" d="M597 573C607 598 570 613 560 589L334 49L107 589C97 613 60 598 71 573L314 -7C321 -25 346 -25 354 -7Z" stroke="rgb(0,0,0)" stroke-opacity="1" stroke-width="8" fill="rgb(0,0,0)" fill-opacity="1"></path></g></g></g></g><g><g><g><g transform="matrix(1,0,0,1,396.51251220703125,294.31750915527346)"><path transform="matrix(0.024480000000000002,0,0,-0.024480000000000002,0,0)" d="M498 143C498 153 489 153 486 153C476 153 475 149 472 135C455 70 437 11 396 11C369 11 366 37 366 57C366 79 368 87 379 131L401 221L437 361C444 389 444 391 444 395C444 412 432 422 415 422C391 422 376 400 373 378C355 415 326 442 281 442C164 442 40 295 40 149C40 55 95 -11 173 -11C193 -11 243 -7 303 64C311 22 346 -11 394 -11C429 -11 452 12 468 44C485 80 498 143 498 143ZM361 332C361 326 359 320 358 315L308 119C303 101 303 99 288 82C244 27 203 11 175 11C125 11 111 66 111 105C111 155 143 278 166 324C197 383 242 420 282 420C347 420 361 338 361 332Z" stroke="rgb(0,0,0)" stroke-opacity="1" stroke-width="8" fill="rgb(0,0,0)" fill-opacity="1"></path></g></g></g></g><g><g><g><g transform="matrix(1,0,0,1,469.73748779296875,295.40500305175783)"><path transform="matrix(0.024480000000000002,0,0,-0.024480000000000002,0,0)" d="M415 282C415 373 362 442 282 442C236 442 195 413 165 382L239 683C239 683 239 694 226 694C203 694 130 686 104 684C96 683 85 682 85 664C85 652 94 652 109 652C157 652 159 645 159 635C159 628 150 594 145 573L63 247C51 197 47 181 47 146C47 51 100 -11 174 -11C292 -11 415 138 415 282ZM343 326C343 267 310 152 292 114C259 47 213 11 174 11C140 11 107 38 107 112C107 131 107 150 123 213L145 305C151 327 151 329 160 340C209 405 254 420 280 420C316 420 343 390 343 326Z" stroke="rgb(0,0,0)" stroke-opacity="1" stroke-width="8" fill="rgb(0,0,0)" fill-opacity="1"></path></g></g></g></g></svg>
</svg>
